<svg xmlns="http://www.w3.org/2000/svg" width="512" height="512" viewBox="0 0 512 512">
  <defs>
    <linearGradient id="bg" x1="0" y1="0" x2="0" y2="1">
      <stop offset="0" stop-color="#FFDD7A"/>
      <stop offset="1" stop-color="#F7B527"/>
    </linearGradient>
    <clipPath id="barclip"><rect x="-166" y="-30" width="332" height="60" rx="16"/></clipPath>
  </defs>
  <rect width="512" height="512" fill="url(#bg)"/>
  <g transform="translate(256 274) rotate(-5)">
    <rect x="-158" y="-52" width="316" height="210" rx="30" fill="#33322E" opacity="0.14" transform="translate(7 13)"/>
    <rect x="-158" y="-52" width="316" height="210" rx="30" fill="#FFFFFF" stroke="#33322E" stroke-width="14"/>
    <path d="M -38 8 L 62 64 L -38 120 Z" fill="#2E9E5B" stroke="#33322E" stroke-width="13" stroke-linejoin="round"/>
    <g transform="translate(0 -88) rotate(-9)">
      <rect x="-166" y="-30" width="332" height="60" rx="16" fill="#33322E"/>
      <g clip-path="url(#barclip)">
        <path d="M -140 -30 L -110 -30 L -128 30 L -158 30 Z" fill="#E5484D"/>
        <path d="M -90 -30 L -60 -30 L -78 30 L -108 30 Z" fill="#3E63DD"/>
        <path d="M -40 -30 L -10 -30 L -28 30 L -58 30 Z" fill="#2E9E5B"/>
        <path d="M 10 -30 L 40 -30 L 22 30 L -8 30 Z" fill="#E8891C"/>
        <path d="M 60 -30 L 90 -30 L 72 30 L 42 30 Z" fill="#8E4EC6"/>
        <path d="M 110 -30 L 140 -30 L 122 30 L 92 30 Z" fill="#E5484D"/>
      </g>
    </g>
  </g>
</svg>
